<?xml version="1.0" encoding="UTF-8"?>
<svg id="JL" xmlns="http://www.w3.org/2000/svg" viewBox="0 0 942.72 942.72">
  <defs>
    <style>
      .cls-1 {
        fill: #fff;
        fill-rule: evenodd;
      }
    </style>
  </defs>
  <g id="Rectangle_1-2" data-name="Rectangle 1">
    <path class="cls-1" d="M90,0C40.29,0,0,40.29,0,90v852.72h852.72c49.71,0,90-40.29,90-90V0H90Z"/>
  </g>
  <g>
    <path d="M149.77,843.81c-17.6,0-24.87-10.4-19.58-28L327.97,158.21c5.29-17.6,18.82-28,36.42-28h104c17.6,0,24.87,10.4,19.58,28l-124.15,412.8c-20.21,67.2-37.52,100.8-75.88,151.2l-66.47,88c-19.94,26.4-34.11,33.6-54.11,33.6h-17.6Z"/>
    <path d="M371.55,718.21c-17.6,0-24.87-10.4-19.58-28L511.97,158.21c5.29-17.6,18.82-28,36.42-28h104c17.6,0,24.87,10.4,19.58,28l-160,532c-5.29,17.6-18.82,28-36.42,28h-104ZM547.55,718.21c-17.6,0-24.87-10.4-19.58-28l42.11-140c5.29-17.6,18.82-28,36.42-28h88c17.6,0,24.87,10.4,19.58,28l-42.11,140c-5.29,17.6-18.82,28-36.42,28h-88Z"/>
  </g>
</svg>